<svg id="svg" version="1.1" xmlns="http://www.w3.org/2000/svg" xmlns:xlink="http://www.w3.org/1999/xlink" width="32" height="32" viewBox="0, 0, 400,400"><g id="svgg"><path id="path0" d="M144.189 26.212 C 142.655 26.989,140.463 28.222,139.318 28.952 C 138.053 29.759,135.227 30.867,132.118 31.776 C 125.581 33.686,124.241 34.285,121.815 36.386 C 120.723 37.332,118.178 38.872,116.159 39.809 C 113.723 40.939,111.694 42.243,110.129 43.682 C 108.320 45.344,106.709 46.311,103.226 47.825 C 99.175 49.585,98.463 50.050,96.667 52.115 C 95.559 53.389,93.608 55.066,92.331 55.842 C 91.054 56.617,89.063 58.340,87.906 59.670 C 86.749 61.001,84.594 62.871,83.117 63.826 C 81.638 64.783,79.886 66.335,79.218 67.282 C 78.551 68.227,76.969 69.818,75.702 70.819 C 74.388 71.857,72.601 73.842,71.538 75.442 C 70.515 76.985,68.847 78.867,67.832 79.624 C 66.767 80.418,65.224 82.205,64.184 83.848 C 63.193 85.414,61.320 87.619,60.022 88.749 C 58.038 90.474,57.347 91.459,55.697 94.912 C 54.533 97.350,52.949 99.907,51.804 101.196 C 50.585 102.569,49.103 105.008,47.782 107.820 C 46.508 110.531,44.974 113.078,43.857 114.336 C 42.325 116.061,41.819 117.075,40.780 120.500 C 38.374 128.435,37.981 129.426,36.070 132.400 C 33.404 136.549,32.932 137.948,31.776 145.125 C 30.498 153.061,29.917 155.317,27.973 159.891 C 22.483 172.811,22.763 217.936,28.433 234.055 C 29.722 237.718,30.810 241.863,31.601 246.118 C 33.155 254.476,33.702 256.162,36.071 259.906 C 37.279 261.813,38.418 264.304,39.043 266.400 C 39.601 268.270,40.507 271.008,41.058 272.484 C 42.029 275.090,42.401 275.712,45.061 279.172 C 45.755 280.074,46.967 282.475,47.756 284.506 C 48.838 287.295,49.877 289.068,51.997 291.743 C 53.541 293.691,55.434 296.612,56.203 298.234 C 57.210 300.354,58.286 301.831,60.037 303.491 C 61.376 304.761,62.939 306.610,63.511 307.600 C 65.050 310.265,65.684 311.007,67.949 312.797 C 69.079 313.690,70.468 315.182,71.036 316.111 C 71.604 317.040,73.628 319.330,75.535 321.200 C 77.442 323.070,79.626 325.300,80.387 326.156 C 81.149 327.013,82.643 328.249,83.709 328.905 C 84.775 329.561,86.356 331.057,87.223 332.231 C 88.296 333.683,89.660 334.869,91.499 335.947 C 92.985 336.817,95.234 338.620,96.498 339.953 C 98.209 341.756,99.641 342.782,102.098 343.964 C 103.914 344.837,106.660 346.568,108.200 347.810 C 111.268 350.285,112.329 350.893,116.804 352.749 C 118.457 353.434,120.701 354.733,121.792 355.634 C 124.464 357.842,125.719 358.432,131.824 360.347 C 135.499 361.501,137.872 362.520,139.824 363.785 C 143.367 366.079,145.881 366.904,153.877 368.395 C 157.833 369.132,162.637 370.372,166.217 371.579 C 182.768 377.161,226.659 377.479,239.600 372.111 C 244.364 370.135,247.272 369.374,254.460 368.222 C 261.266 367.131,264.243 366.206,266.715 364.415 C 269.320 362.529,271.934 361.366,276.600 360.018 C 282.349 358.358,283.763 357.700,286.368 355.470 C 287.714 354.317,289.870 353.061,292.059 352.154 C 294.503 351.141,296.352 350.024,298.092 348.509 C 299.695 347.112,302.209 345.547,305.062 344.170 C 308.811 342.361,309.825 341.664,311.411 339.807 C 312.450 338.592,314.355 336.956,315.645 336.173 C 316.935 335.389,318.938 333.657,320.095 332.323 C 321.253 330.989,323.307 329.156,324.660 328.249 C 326.014 327.342,327.933 325.596,328.926 324.369 C 329.919 323.142,331.622 321.460,332.710 320.629 C 333.799 319.799,335.361 318.065,336.183 316.775 C 337.005 315.485,338.813 313.433,340.201 312.214 C 341.589 310.996,343.262 309.054,343.920 307.899 C 344.577 306.745,346.315 304.671,347.782 303.291 C 349.249 301.911,350.723 300.111,351.058 299.291 C 352.738 295.184,354.552 292.006,356.248 290.200 C 357.348 289.028,358.684 286.957,359.475 285.200 C 361.613 280.446,362.078 279.624,363.627 277.861 C 365.674 275.530,366.585 273.562,368.032 268.343 C 369.352 263.579,370.253 261.452,371.857 259.312 C 373.428 257.216,375.199 253.109,375.200 251.560 C 375.202 242.815,374.232 241.418,367.942 241.104 C 363.212 240.868,363.231 240.861,359.830 243.943 C 358.169 245.449,356.351 246.630,354.549 247.375 C 350.865 248.899,348.564 250.203,346.396 251.995 C 344.064 253.922,342.286 254.797,337.455 256.393 C 335.029 257.194,332.539 258.361,330.987 259.424 C 326.855 262.253,325.406 262.807,318.853 264.064 C 315.184 264.768,311.113 265.843,309.000 266.666 C 307.020 267.437,304.242 268.512,302.826 269.054 C 291.665 273.330,256.081 272.352,242.859 267.406 C 240.170 266.400,235.523 265.105,231.982 264.376 C 224.405 262.814,222.469 262.114,218.738 259.585 C 216.853 258.307,214.468 257.159,212.009 256.347 C 207.118 254.731,204.942 253.628,202.540 251.546 C 201.473 250.621,198.980 249.104,197.000 248.174 C 194.334 246.923,192.834 245.905,191.219 244.248 C 190.019 243.017,187.874 241.333,186.451 240.505 C 185.028 239.677,182.293 237.560,180.374 235.800 C 178.454 234.040,175.735 231.615,174.331 230.411 C 172.927 229.206,170.794 227.074,169.589 225.671 C 168.385 224.268,165.850 221.428,163.955 219.359 C 162.060 217.290,159.956 214.563,159.279 213.298 C 158.601 212.034,157.028 210.010,155.781 208.800 C 154.096 207.164,153.079 205.677,151.815 203.000 C 150.879 201.020,149.371 198.566,148.464 197.546 C 146.485 195.323,145.328 193.055,143.616 188.039 C 142.910 185.970,141.898 183.630,141.367 182.839 C 140.836 182.047,139.979 180.770,139.463 180.000 C 138.160 178.056,137.011 174.805,136.211 170.800 C 134.951 164.485,133.636 159.616,132.458 156.901 C 129.343 149.725,128.608 143.443,128.608 124.000 C 128.607 103.429,128.957 100.864,133.023 91.646 C 134.070 89.271,134.889 86.330,135.828 81.576 C 137.201 74.617,137.769 73.101,140.508 69.089 C 141.515 67.613,142.780 64.828,143.838 61.755 C 145.530 56.843,146.240 55.493,148.542 52.810 C 149.197 52.045,150.712 49.386,151.907 46.901 C 153.214 44.182,154.722 41.714,155.691 40.705 C 158.985 37.277,159.189 36.725,158.870 32.101 C 158.444 25.922,157.048 24.914,148.789 24.821 C 147.480 24.806,146.203 25.192,144.189 26.212 " stroke="none" fill="#040404" fill-rule="evenodd"></path><path id="path1" d="M0.000 200.000 L 0.000 400.000 200.000 400.000 L 400.000 400.000 400.000 200.000 L 400.000 0.000 200.000 0.000 L 0.000 0.000 0.000 200.000 M153.315 25.143 C 157.593 25.618,158.501 26.756,158.870 32.101 C 159.189 36.725,158.985 37.277,155.691 40.705 C 154.722 41.714,153.214 44.182,151.907 46.901 C 150.712 49.386,149.197 52.045,148.542 52.810 C 146.240 55.493,145.530 56.843,143.838 61.755 C 142.780 64.828,141.515 67.613,140.508 69.089 C 137.769 73.101,137.201 74.617,135.828 81.576 C 134.889 86.330,134.070 89.271,133.023 91.646 C 128.957 100.864,128.607 103.429,128.608 124.000 C 128.608 143.443,129.343 149.725,132.458 156.901 C 133.636 159.616,134.951 164.485,136.211 170.800 C 137.011 174.805,138.160 178.056,139.463 180.000 C 139.979 180.770,140.836 182.047,141.367 182.839 C 141.898 183.630,142.910 185.970,143.616 188.039 C 145.328 193.055,146.485 195.323,148.464 197.546 C 149.371 198.566,150.879 201.020,151.815 203.000 C 153.079 205.677,154.096 207.164,155.781 208.800 C 157.028 210.010,158.601 212.034,159.279 213.298 C 159.956 214.563,162.060 217.290,163.955 219.359 C 165.850 221.428,168.385 224.268,169.589 225.671 C 170.794 227.074,172.927 229.206,174.331 230.411 C 175.735 231.615,178.454 234.040,180.374 235.800 C 182.293 237.560,185.028 239.677,186.451 240.505 C 187.874 241.333,190.019 243.017,191.219 244.248 C 192.834 245.905,194.334 246.923,197.000 248.174 C 198.980 249.104,201.473 250.621,202.540 251.546 C 204.942 253.628,207.118 254.731,212.009 256.347 C 214.468 257.159,216.853 258.307,218.738 259.585 C 222.469 262.114,224.405 262.814,231.982 264.376 C 235.523 265.105,240.170 266.400,242.859 267.406 C 256.081 272.352,291.665 273.330,302.826 269.054 C 304.242 268.512,307.020 267.437,309.000 266.666 C 311.113 265.843,315.184 264.768,318.853 264.064 C 325.406 262.807,326.855 262.253,330.987 259.424 C 332.539 258.361,335.029 257.194,337.455 256.393 C 342.286 254.797,344.064 253.922,346.396 251.995 C 348.564 250.203,350.865 248.899,354.549 247.375 C 356.351 246.630,358.169 245.449,359.830 243.943 C 363.231 240.861,363.212 240.868,367.942 241.104 C 374.232 241.418,375.202 242.815,375.200 251.560 C 375.199 253.109,373.428 257.216,371.857 259.312 C 370.253 261.452,369.352 263.579,368.032 268.343 C 366.585 273.562,365.674 275.530,363.627 277.861 C 362.078 279.624,361.613 280.446,359.475 285.200 C 358.684 286.957,357.348 289.028,356.248 290.200 C 354.552 292.006,352.738 295.184,351.058 299.291 C 350.723 300.111,349.249 301.911,347.782 303.291 C 346.315 304.671,344.577 306.745,343.920 307.899 C 343.262 309.054,341.589 310.996,340.201 312.214 C 338.813 313.433,337.005 315.485,336.183 316.775 C 335.361 318.065,333.799 319.799,332.710 320.629 C 331.622 321.460,329.919 323.142,328.926 324.369 C 327.933 325.596,326.014 327.342,324.660 328.249 C 323.307 329.156,321.253 330.989,320.095 332.323 C 318.938 333.657,316.935 335.389,315.645 336.173 C 314.355 336.956,312.450 338.592,311.411 339.807 C 309.825 341.664,308.811 342.361,305.062 344.170 C 302.209 345.547,299.695 347.112,298.092 348.509 C 296.352 350.024,294.503 351.141,292.059 352.154 C 289.870 353.061,287.714 354.317,286.368 355.470 C 283.763 357.700,282.349 358.358,276.600 360.018 C 271.934 361.366,269.320 362.529,266.715 364.415 C 264.243 366.206,261.266 367.131,254.460 368.222 C 247.272 369.374,244.364 370.135,239.600 372.111 C 226.659 377.479,182.768 377.161,166.217 371.579 C 162.637 370.372,157.833 369.132,153.877 368.395 C 145.881 366.904,143.367 366.079,139.824 363.785 C 137.872 362.520,135.499 361.501,131.824 360.347 C 125.719 358.432,124.464 357.842,121.792 355.634 C 120.701 354.733,118.457 353.434,116.804 352.749 C 112.329 350.893,111.268 350.285,108.200 347.810 C 106.660 346.568,103.914 344.837,102.098 343.964 C 99.641 342.782,98.209 341.756,96.498 339.953 C 95.234 338.620,92.985 336.817,91.499 335.947 C 89.660 334.869,88.296 333.683,87.223 332.231 C 86.356 331.057,84.775 329.561,83.709 328.905 C 82.643 328.249,81.149 327.013,80.387 326.156 C 79.626 325.300,77.442 323.070,75.535 321.200 C 73.628 319.330,71.604 317.040,71.036 316.111 C 70.468 315.182,69.079 313.690,67.949 312.797 C 65.684 311.007,65.050 310.265,63.511 307.600 C 62.939 306.610,61.376 304.761,60.037 303.491 C 58.286 301.831,57.210 300.354,56.203 298.234 C 55.434 296.612,53.541 293.691,51.997 291.743 C 49.877 289.068,48.838 287.295,47.756 284.506 C 46.967 282.475,45.755 280.074,45.061 279.172 C 42.401 275.712,42.029 275.090,41.058 272.484 C 40.507 271.008,39.601 268.270,39.043 266.400 C 38.418 264.304,37.279 261.813,36.071 259.906 C 33.702 256.162,33.155 254.476,31.601 246.118 C 30.810 241.863,29.722 237.718,28.433 234.055 C 22.763 217.936,22.483 172.811,27.973 159.891 C 29.917 155.317,30.498 153.061,31.776 145.125 C 32.932 137.948,33.404 136.549,36.070 132.400 C 37.981 129.426,38.374 128.435,40.780 120.500 C 41.819 117.075,42.325 116.061,43.857 114.336 C 44.974 113.078,46.508 110.531,47.782 107.820 C 49.103 105.008,50.585 102.569,51.804 101.196 C 52.949 99.907,54.533 97.350,55.697 94.912 C 57.347 91.459,58.038 90.474,60.022 88.749 C 61.320 87.619,63.193 85.414,64.184 83.848 C 65.224 82.205,66.767 80.418,67.832 79.624 C 68.847 78.867,70.515 76.985,71.538 75.442 C 72.601 73.842,74.388 71.857,75.702 70.819 C 76.969 69.818,78.551 68.227,79.218 67.282 C 79.886 66.335,81.638 64.783,83.117 63.826 C 84.594 62.871,86.749 61.001,87.906 59.670 C 89.063 58.340,91.054 56.617,92.331 55.842 C 93.608 55.066,95.559 53.389,96.667 52.115 C 98.463 50.050,99.175 49.585,103.226 47.825 C 106.709 46.311,108.320 45.344,110.129 43.682 C 111.694 42.243,113.723 40.939,116.159 39.809 C 118.178 38.872,120.723 37.332,121.815 36.386 C 124.241 34.285,125.581 33.686,132.118 31.776 C 135.227 30.867,138.053 29.759,139.318 28.952 C 145.609 24.940,147.315 24.476,153.315 25.143 " stroke="none" fill="#fcfcfc" fill-rule="evenodd"></path></g></svg>